<svg xmlns="http://www.w3.org/2000/svg" xmlns:xlink="http://www.w3.org/1999/xlink" width="1954.383" height="1168.547" viewBox="0 0 1954.383 1168.547">
  <defs>
    <clipPath id="clip-path">
      <path id="Path_1532" data-name="Path 1532" d="M104.412,59.359c-4.334,3.366-11.065,2.87-15.4,13.474a46.507,46.507,0,0,1-4.91,9.129c1.521,3.227,3.815,5.509,5.648,5.06,1.6-.392,3.412.715,5.579,1.833,2.432,1.256,5.348,2.513,8.979,1.6,3.25-.818,5.924.1,8.841,1.026,3.239,1.014,6.777,2.029,11.733.68,3.919-1.06,7.711-.657,11.03-.242,4.645.6,8.391,1.176,10.4-2.317,3.423-6.017-2.593-18.88-2.593-18.88s1.6-.772,3.562-1.66c-7.792-7.158-12.16-6.512-16.286-5.878-2.72.426-5.348.853-8.771-.957-5.752-3.02-9.59-4.714-12.736-4.714a7.915,7.915,0,0,0-5.072,1.844" transform="translate(-84.103 -57.515)" fill="#9a9a9a"/>
    </clipPath>
  </defs>
  <g id="Group_97" data-name="Group 97" transform="translate(-4397.732 -13431.968)">
    <g id="Group_96" data-name="Group 96" transform="translate(5367.108 14094.89)" opacity="0.23">
      <g id="Group_95" data-name="Group 95" clip-path="url(#clip-path)">
        <rect id="Rectangle_685" data-name="Rectangle 685" width="65.63" height="35.996" transform="translate(0 0)" fill="#9a9a9a"/>
      </g>
    </g>
    <path id="Path_1533" data-name="Path 1533" d="M147.277,69.06c-12.921-11.872-16.425-2.282-25.058-6.823-9.14-4.806-13.474-6.259-17.808-2.881s-11.065,2.881-15.4,13.474a47.875,47.875,0,0,1-4.91,9.14c1.51,3.227,3.815,5.509,5.648,5.06,3.423-.853,7.711,5.141,14.557,3.435,6.858-1.729,11.146,4.265,20.574,1.706,9.417-2.582,17.992,3.435,21.427-2.559,3.423-6.017-2.582-18.88-2.582-18.88S145.318,69.948,147.277,69.06Z" transform="translate(5283.005 14037.379)" fill="none" stroke="#fff" stroke-width="0.125"/>
    <path id="Path_1540" data-name="Path 1540" d="M89.255,41.24c-7.7-.461-22.487,7.181-24.608,14.1a15.846,15.846,0,0,1,3.665,6.109c1.717,5.994,6.87,11.157,12.863,14.569,3.688,2.109,3.158,7.78,2.19,12.852a56.521,56.521,0,0,0,9.255-.934c6.259-1.452,19.744-20.712,21.669-26.014,1.925-5.279-16.851-20.205-25.035-20.678" transform="translate(5078.21 13865.855)" fill="#9a9a9a" opacity="0.23"/>
    <g id="Group_99" data-name="Group 99">
      <path id="Path_1534" data-name="Path 1534" d="M173.812,162.575c-3.827-21.254-5.971-41.9-8.76-41.9-3.907,0-9.106,18.2-15.606,16.909-6.489-1.314-6.489-23.409,1.3-23.409s16.9-16.909,16.9-22.107-7.792-5.2-15.583-5.2c-7.815,0-24.723,1.3-24.723,1.3s-10.408-3.907-10.408-10.42c0-6.489-3.9-11.687-14.3-11.687-10.385,0-10.385-10.408-18.2,0s16.909,10.4,14.3,18.2-10.408,2.6-11.711,9.106,1.314,23.409,5.221,32.5c2.985,7.008,7.48,24.77,7.653,39.719,6.063-1.176,8.886-3.976,14.5-3.976,7.054,0,16.678-.968,17.324-8.356s8.668-12.817,13.14-10.581c4.5,2.248,11.238,20.217,11.549,29.518.115,2.985,1.406,6.893,3.389,10.938a64.677,64.677,0,0,1,7.768-6.328s2.64-9.9,6.247-14.235" transform="translate(5270.314 14078.707)" fill="#dfdfdf" opacity="0.23"/>
      <path id="Path_1535" data-name="Path 1535" d="M1353.434,159.232c.646-11.549-12.84-7.7-17.312-4.484-4.507,3.193-17.335,0-21.185,7.7s-10.27,3.193-19.249,4.484-21.83-2.559-21.185-8.333-5.141-11.549-4.5-18.626-8.979-3.85-15.4-10.258c-6.431-6.432-19.248-10.915-21.819-9.624s-10.27-7.065-21.185-7.7-9.624-7.711-8.333-12.195c1.279-4.507-8.99-18.615-10.915-26.326s-9.636-8.967-12.84-25.657-12.183-12.195-10.258-19.894-10.9-11.549-14.119-16.044-16.69-2.57-26.314-7.7-15.41-1.291-24.378-3.85c-8.979-2.582-29.53,2.559-32.088,2.559s-18.626-3.216-27.605,8.99-1.925,11.561,1.925,11.561,5.775,11.549,6.431,15.4-6.431,9.624-9.624,10.9-12.195,15.4-13.474,20.539-11.561,17.969-10.282,22.453-5.129,8.99-9.624,9.624-16.678,9.636-20.539,10.915-19.237-1.279-21.162-5.775c-.622-1.441-2.5-2.674-4.841-3.631L946.2,139l-1.395,11.18s-11.18,2.778-2.8,11.169c8.4,8.4,9.8,1.406,22.384,1.406s18.177,9.8,20.977,2.8c2.778-7.008,13.958-11.192,20.955-2.8s29.357,22.361,27.962,29.368c-1.406,6.985-13.981,5.59-22.361,2.789-8.4-2.789-19.571,5.6-27.962,5.6a36.974,36.974,0,0,0-26.568,11.18c-8.391,8.379-6.985,16.77-19.583,18.177-12.564,1.395-18.165,0-32.135,9.774-13.993,9.786-29.38,5.59-34.958,2.789-5.6-2.789-15.387-4.184-20.977,5.6s7,13.993,5.59,25.173-15.376,8.379-26.556,20.977c-11.192,12.563-29.357,18.165-39.154,16.759-9.774-1.395-30.763-6.973-48.928,1.406-18.165,8.4-30.763,20.966-37.748,19.571s-6.985-9.786-16.77-8.379-15.376-1.406-22.372-5.59c-7-4.207-12.586,2.8-23.778-5.6-11.169-8.391-30.752-6.985-39.131-8.391-8.4-1.395-40.56,0-51.74-1.395s-26.556,2.778-27.962-2.8-9.774-9.786-12.575-22.372-9.8-16.77-16.782-18.165-7.815-8.794-13.97-9.8c-2.974-.484-6.512-9.809-16.3-9.809-9.763,0-43.96-3.988-48.859-11.987-4.876-8,4.9-9.774,4.9-17.773s5.314-18.649,1.314-21.773c-4-3.1-10.65-10.2-11.549-16.413-.888-6.236-11.538-14.673-18.649-15.111s-12.875-4.9-19.537-10.662-12.886-5.337-15.549-19.986a25.619,25.619,0,0,0-.7-2.593c-2.674-.3-6.1-1.314-8.287-1.314-1.729,0-3.827-1.452-5.694-3.412-1.752,6.109-7.527,9.163-7.527,13.97,0,5.337-2.213,12.01-9.336,12.01-7.088,0-13.751,5.325-14.212,16.413-.438,11.123,6.236,12.448,3.124,17.335s-16.01,9.763-20.447,7.561c-4.437-2.225-12.875-.9-19.986-1.787s-12.437-9.763-14.65,0-16.886,38.647-13.324,41.77c3.538,3.089,6.213,10.212,0,10.212-6.236,0-12.448-.911-15.549-4.011-3.124-3.112-13.29,4.357-20.424,4.011-3.331-.173-17.289,6.074-12.471,8.506,4.818,2.4,4.818,13.947,4.818,18.753,0,4.829,10.581,19.26,8.645,24.078s-11.538,10.108-11.538,16.355,1.913,12.033-1.452,13.474-13.958,5.786-19.249,9.636-13.958,3.85-16.851,9.624-7.227,10.742-17.324,9.624c-8.668-.968-12.99-2.421-19.733,5.775s-8.183,4.806-12.99,8.656-9.624-2.87-13.486-4.322-9.14,4.322-12.99,4.322-7.227,6.259-12.033,7.711-9.624,0-9.624,5.775a16.636,16.636,0,0,1-3.55,10.754H56.8l3.435,18.845s20.574,6.858,21.427,13.716,4.288,29.138,4.288,29.138-.265.023-.622.081c8.322,6.524,19.767,13.5,19.767,16.021,0,2.893.968,11.549,11.077,16.367,6.4,3.043,12.967,6.282,16.955,8.979.5-1.21.807-2.052.807-2.052l8.564-.83a26.883,26.883,0,0,1,4.9,4.149c2.121-6.9,16.9-14.546,24.608-14.1,8.172.473,26.96,15.41,25.035,20.689-1.936,5.3-15.41,24.551-21.669,26a56.659,56.659,0,0,1-9.255.934c-.588,3.158-1.337,6.074-1.337,7.722,0,4.288,7.7,11.157,11.987,18.857s-6.858,12.84-12.84,7.7-8.575,5.141-5.141,9.428,1.717,16.275,7.711,17.151c5.982.853,11.134,12.84,17.992,12.84S197.335,607.6,197.335,607.6s9.417,5.994,9.417,9.428a2.5,2.5,0,0,1-.415,1.3c7.48-.749,12.437-1.026,13.313-4.1.968-3.377,10.592-3.377,17.324,3.366s34.163,24.066,44.283,32.238c10.1,8.184,33.679,17.335,41.874,16.863,8.172-.484,15.883,5.775,28.4,5.29a37.836,37.836,0,0,1,4.968.127c1.775-1.913,4.783-1.971,7.077-5.383,3.423-5.141,8.564,4.288,6.858,11.134a14.784,14.784,0,0,0,1.21,9.509,46.789,46.789,0,0,0,4.9-9.129c4.345-10.6,11.077-10.108,15.41-13.474s8.668-1.936,17.808,2.87c8.633,4.553,12.137-5.037,25.058,6.835,2.674-1.2,6.1-2.6,7.6-2.6,2.559,0,6.005-5.141,10.27-9.428,4.288-4.288,3.435-9.428,8.575-8.575s7.722-5.994,18.845-11.987c11.146-5.994,20.574,3.412,25.715-.853,5.129-4.288,11.134-6.017,11.134-1.729s6.858,9.428,8.575,14.569c1.533,4.61,10.546,6.455,12.448,6.789a34.907,34.907,0,0,0,3.665-2.144c5.29-3.85,14.431.473,14.431,6.259s.484,12.022,4.818,12.022,8.656,0,8.656,10.581c0,10.6,3.85,22.626-5.291,31.777s-19.733,25.507-17.8,30.314c1.913,4.829-2.893,13.958,3.838,10.6,6.743-3.377,22.142,0,19.744,3.85-2.421,3.85.473,17.312,6.731,17.808,6.259.473,10.108,3.85,8.183,9.624s-5.29,14.431,0,14.431,12.99,0,12.033,5.775,3.85,11.077,13.474,7.227c5.659-2.259,8.483-4.322,9.763-2.063,3.838-.115,4.1,8.6,10.708,10.247,6.858,1.717,3.423-14.569.853-17.139s.853-13.716,3.423-11.134c2.582,2.559,10.281,0,14.569-5.141s12.863,4.288,16.3-1.729c3.423-5.993,11.123,4.288,18.834,0s11.146,3.435,14.58-2.559c3.412-5.994,14.557-13.716,17.128-11.134,2.57,2.559,4.288,7.7,17.981,9.428,13.727,1.706,6.017,8.552,6.017,12.84s15.422,15.422,21.415,16.286c1.107.15,2.663,1.5,4.449,3.573,4.161-2.075,11.607,1.372,13.255-3.562,1.913-5.774,8.967-4.161,11.86.634s6.1,5.774,12.517,0,9.624,5.774,5.775,9c-3.85,3.193-1.279,13.14,4.818,18.914s7.054-3.516,5.775-9.29,10.27-11.561,30.475-18.3,42.024-21.5,42.358-24.689c.323-3.227,14.454,5.774,21.185.634s31.12-5.775,37.54-6.1,6.1-5.775,12.829-11.238S969.985,768.235,977.7,766s12.517-9.313,12.517-13.163,14.431-5.118,14.765-9.313c.311-4.161,10.9-5.44,10.9-10.581s6.42-4.161,9.313-8.022-2.247-15.076,2.893-16.69-1.925-7.7-2.893-10.581,9.624-3.527,15.065-7.066a22,22,0,0,0,9.97-15.065c.957-6.12,9.935-11.549,14.1-13.163,4.184-1.6,5.775-10.281,4.495-17.646-1.279-7.388,7.388-5.463,3.539-8.356s1.6-10.892,9.3-13.14-4.818-5.775-8.979-2.582c-4.172,3.216-8.667-9.313-12.517-4.484-3.85,4.806-14.753-2.9-7.711-4.484,7.065-1.614,17.981-9.636,22.787-11.238s-7.054-12.195-13.151-11.872-12.828-14.119-19.26-14.119,4.818-4.5,12.206-.646,16.033,7.065,19.249,3.85-12.517-16.044-18.292-20.528c-5.763-4.507-.323-10.581-3.85-13.163-3.539-2.559-11.238-18.937-13.808-26.3-2.547-7.377-16.033-8.668-19.249-13.474-3.2-4.829.334-16.056,10.281-20.228s5.774-12.506,10.27-11.538,8.322-.968,11.86-8.356,9.624-2.882,13.163-6.731,19.248-3.527,24.7-7.377-5.129-15.721-12.517-13.8-16.033-.98-21.173-8.679-18.6,14.131-28.873,18.937c-10.27,4.829-17-8.656-13.485-17.324,3.538-8.656-8.022-8.345-22.453-7.711-14.442.657-8.99-25.657-.323-26.936s21.5,8,26.959-8.034,13.151-3.515,25.335-17.646c12.206-14.108,26.314-22.776,36.906-14.431s-11.226,21.5-14.765,29.518c-3.515,8.022,3.216,10.592-3.2,16.667-6.42,6.12,2.559,7.711,15.076-.288,12.517-8.045,27.916-17.669,40.111-22.476a23.135,23.135,0,0,1,10.466-1.314c1.717-4.645,3.746-8.356,6.132-9.544,8.391-4.207,36.353-16.77,40.549-22.372s8.391-15.387,13.97-15.387,5.59,5.6,13.992,5.6,18.165,2.778,13.958-4.184c-4.184-7-1.371-7,8.4-8.4,9.786-1.383,8.391-11.192,15.387-11.192,6.973,0,5.579-16.759,12.575-16.759s9.8,9.774,18.176,6.973c1.6-.519,3.677-.1,5.959.876,1.8-1.395,3.55-2.72,5.313-4-.841-8.748.161-16.586-1.556-20.735-3.193-7.711,0-13.486-1.291-17.969s-1.925-15.4,3.216-15.4,11.561-12.829,17.969-8.345,19.248,5.775,19.248,0,9-6.408,10.27-14.108,10.9-9.624,12.828-16.7c1.925-7.042,5.141-23.732,11.561-27.582s-1.291-6.42-.646-17.969M1038.98,766.944c-7.043,25.669,9.393,38.751,11.549,37.229,6.432-4.484,32.734-59.67,26.959-67.381s-31.454,4.5-38.508,30.152M809.888,854.231c-8.345,0-29.53,12.183-21.185,29.518s35.938,5.774,36.6-1.925,13.221-19.813,11.549-25.669c-1.279-4.484-18.615-1.925-26.959-1.925" transform="translate(4995.465 13431.968)" fill="#c5c5c5" opacity="0.23"/>
      <path id="Path_1536" data-name="Path 1536" d="M414.612,343.47c-5.152-1.706,0-19.71-10.27-24-10.293-4.288-19.433-11.238-22.291-18.834-2.57-6.87-15.422-13.728-14.569-18.868s25.715-21.439,22.28-30.844c-3.423-9.428-19.721-7.722-21.415-11.134-1.717-3.435.853-15.422-3.435-24.85s3.435-18,0-23.144,1.717-15.422,2.57-18.868c.864-3.412,9.417-8.552,8.564-17.128-.507-5.175,2.1-8.437,4.806-9.866-2.928-8.645-3.861-23.859-3.861-26.533,0-3.216-10.258-3.216-15.4-2.582-5.129.657-9.624-12.195-14.765-12.195s-9.624-3.85-9.624-7.7-12.195-6.408-18.592-5.775c-6.432.634-7.711-5.141-10.281-5.141S295.5,82.82,292.285,78.958s-21.819-5.141-25.035-.645-9.624,1.925-15.4,1.925-16.033,8.99-19.249,13.474c-1.959,2.766-11.111,3.331-17.935,3.377.254,5.556.277,9.982-.68,11.4-3.354,5.037-28.239,9.624-46.842,10.258C148.532,119.4,147.253,95,127.359,95c-14.477,0-25.484-13.243-26.268-25.645-8.552-3.273-16.724-8.875-15.526-11.238,1.717-3.435,5.982-24.85-4.288-19.71s-24.85,21.415-43.7,18.857C18.726,54.684,32.419,52.979,23,48.691S19.579,34.122,10.15,32.416C.733,30.687,7.58,43.55,2.451,43.55s-.864,14.569.853,18c1.717,3.412-3.423,22.268,0,23.133s11.134,14.569,10.27,17.128c-.853,2.582,7.722,11.134,7.722,17.151,0,5.994,7.711,12.84,12,12.84s10.27,2.559,8.552,7.7c-1.717,5.164,2.582,12.863-2.57,12.863-5.129,0-4.288,14.592-8.552,17.151-4.288,2.57-.864,17.992,2.57,19.71s11.134,5.982,10.27,12c-.853,5.994,18.015,15.422,24.009,16.275s6.846,9.428,10.281,12.863c3.423,3.412-2.582,10.281-1.717,14.546.853,4.288,8.575,7.722,7.711,14.569-.507,4.149,6.455,11.077,12.241,17.082a19.356,19.356,0,0,1,5.279-.922c5.786,0,5.463-6.409,9.935-2.559,4.507,3.85,10.592-.311,15.088-.634s16.69,22.787,22.142,34c5.463,11.238,5.141,15.088,12.517,19.917,7.388,4.795,15.71,2.236,26.3,13.14s37.863,18.292,49.412,18.937,20.217-12.529,34.982-9.636,11.226,21.819,16.69,28.562,65.457,11.226,75.726,14.119c3.746,1.049,12.7,1.706,22.729,1.948-.254-2.121-.438-4.069-.553-5.406-.864-10.281,6.858-18.857,13.716-22.291a57.991,57.991,0,0,1,19.7-5.994c6.858-.853,0-14.569-5.141-16.275" transform="translate(4397.736 13771.498)" fill="#c5c5c5" opacity="0.23"/>
      <path id="Path_1537" data-name="Path 1537" d="M477.887,329.614c-3.9-9.094-6.512-26-5.21-32.492,1.3-6.512,9.106-1.314,11.7-9.117,2.616-7.792-22.107-7.792-14.3-18.2s7.815,0,18.211,0,14.3,5.2,14.3,11.687c0,6.512,10.408,10.42,10.408,10.42s16.9-1.3,24.712-1.3,15.595,0,15.595,5.2-9.106,22.118-16.909,22.118-7.792,22.084-1.3,23.4c6.5,1.291,11.711-16.909,15.606-16.909,2.8,0,4.933,20.643,8.76,41.9,1.014-1.187,2.075-2.063,3.181-2.063,5.141,0,2.57-17.981,6.005-23.121s1.706-21.415,4.288-21.415,18,5.141,17.139.853,9.417-18.868,7.7-26.579,6.005-17.139,6.005-26.568c0-9.405,8.564-11.987,14.569-17.128s16.286-11.987,18-7.722c1.706,4.288,14.546,7.722,9.428,0-5.152-7.7-5.152-12.84-1.717-14.546,3.423-1.729,5.141-10.281,5.141-10.281s-11.146-1.729-12.852-6.87-8.575-10.281-8.575-14.569-6-2.57-11.146,1.717-14.569-5.141-25.715.864c-11.123,5.994-13.7,12.84-18.845,11.987s-4.288,4.288-8.575,8.575c-4.265,4.288-7.711,9.428-10.27,9.428s-11.146,4.265-11.146,4.265,6.005,12.863,2.582,18.88c-3.435,5.994-12.01-.023-21.427,2.559-9.428,2.559-13.716-3.435-20.574-1.706-6.847,1.706-11.134-4.288-14.558-3.435s-8.575-7.722-6.858-14.569-3.435-16.275-6.858-11.134-8.564,2.559-8.564,10.281c0,7.7,4.288,17.128-.853,22.268s-32.573,7.723-37.7,3.435c-5.152-4.288-27.432-6.87-28.285-11.134-.864-4.288-7.711-12.01-12-12.01s-17.151,5.994-20.563,3.435c-3.423-2.582-12-9.428-18-10.281s-15.41-5.141-16.275-8.552c-.853-3.435-14.569-5.164-17.151-8.587-2.559-3.423-11.134-4.288-11.134-8.564s3.435-11.146,3.435-16.286,10.281-10.281,10.281-13.716-9.428-9.428-9.428-9.428-5.994-11.134-12.852-11.134-12.01-11.987-17.992-12.84c-5.994-.876-4.288-12.863-7.711-17.151s-.853-14.569,5.141-9.428,17.128,0,12.84-7.711-11.987-14.569-11.987-18.857,5.152-17.128-.853-20.562c-5.994-3.412-11.146-8.575-12.863-14.569S253.3,42.085,253.3,42.085l-8.564.83s-5.141,13.716-8.564,15.422c-3.435,1.729-15.433,4.288-21.427,8.575s-23.133-5.994-32.561-5.994-15.433,9.428-11.146,12.01c4.288,2.559,3.423,20.551,3.423,20.551s5.152,22.291,12.863,20.562c7.7-1.706,17.128,7.723,10.27,9.428-6.835,1.729-10.27,9.428-11.123,16.275-.864,6.87.853,15.422-4.288,16.3-5.141.853-10.293,2.559-10.293,11.987s-11.123,6.846-12.84,10.281-6.005,20.574-8.575,23.144-17.139,3.423-18,11.134-7.688,17.139-11.987,16.286-12-4.288-14.58.853c-2.559,5.141-13.693-4.288-16.263-1.706-2.582,2.559-16.3,13.693-16.3,20.562,0,6.847,14.58,6.847,13.716,15.422-.853,8.552,5.152,17.981,9.44,22.268,4.265,4.288,11.123,14.581,7.7,19.721s-8.564,5.993-16.275,4.288-6.858,3.423-20.574.853-14.557,7.711-19.71,13.716c-.311.369-.8.911-1.383,1.568,6.489,5.118,9.2,14.246,19.963,18.4,12.517,4.806,23.755-8.022,23.755,1.291,0,9.29-29.53,7.365-30.164,10.27-.645,2.87,30.475,40.434,46.208,37.529,15.71-2.882,27.259-19.882,22.764-22.464s2.57-13.14,6.743-11.215.645,18.615,5.463,22.464,3.2,10.9,0,19.894c-3.216,8.967,3.2,26.614,4.161,36.561.968,9.97,7.711,24.4,9.958,39.143,2.248,14.776,11.549,41.736,20.217,58.08,8.668,16.367,15.387,48.467,21.162,56.167s20.539,31.12,20.539,45.551,15.722,34.659,21.185,38.509,17.324-4.484,20.205-13.474,19.26-12.529,20.217-20.205c.968-7.711,2.57-13.8,8.345-14.776,5.775-.945,5.775-7.065,5.775-15.4s.645-20.205,6.42-27.593,6.743-27.271,3.216-35.293-1.614-19.26,1.591-27.271,1.936-17.335,8.034-17.969,15.065-6.1,21.485-14.765,26-20.528,33.057-26.3,28.55-24.712,34.982-35.293c6.409-10.6,24.7-14.142,33.045-22.787s5.129-13.163,6.743-22.476c1.6-9.29,28.539-13.14,38.808-13.14a28.014,28.014,0,0,0,5.406-.519c-.173-14.949-4.668-32.711-7.653-39.719" transform="translate(4884.658 13874.958)" fill="#e6e6e6"/>
      <path id="Path_1538" data-name="Path 1538" d="M232.059,113.2a36.061,36.061,0,0,0-4.968-.115c-12.517.473-20.217-5.786-28.4-5.3S166.925,99.1,156.817,90.931s-37.54-25.507-44.283-32.238c-6.731-6.754-16.355-6.754-17.324-3.377-.876,3.077-5.832,3.354-13.313,4.115-1.913,3.366-9.855,7.872-9.855,12.4,0,5.141-3.435,11.987-3.435,16.275s8.575,5.141,11.134,8.575c2.582,3.412,16.3,5.141,17.151,8.575.865,3.412,10.27,7.7,16.275,8.552s14.58,7.711,18,10.281,16.275-3.423,20.563-3.423,11.134,7.723,12,12,23.133,6.858,28.285,11.146c5.129,4.288,32.561,1.706,37.7-3.435s.853-14.569.853-22.28c0-2.582.6-3.942,1.487-4.9" transform="translate(5119.905 13990.875)" fill="#c6c6c6" opacity="0.23"/>
      <path id="Path_1541" data-name="Path 1541" d="M329.256,66.644c-4.5.634-3.538-3.216-8.345-6.12C317.1,58.242,305.639,68.65,297.2,76.119c-3.953,1.291-7.849,2.789-11.272,3.8-4.726,1.395-8.575,1.867-10.546-.438-5.152-5.971,8.564-21.415-.865-25.7-9.405-4.288-.853-17.128-8.575-17.981-7.688-.864-19.7,12.84-19.7,18.834,0,6.017-20.563,4.288-20.563,10.3,0,5.994-18.857-.876-22.291,5.994-3.412,6.846-12.84-5.141-18.845-5.141s-10.281-8.575-17.981-5.994c-7.722,2.559-12.01-2.582-18-3.435s-10.293,12.863-17.128,10.281c-6.858-2.582-10.293,12.84-12.863,21.415s-31.708,8.575-30.855,18S70.588,118.915,68.87,112.91s-12.863-2.559-15.433-4.288c-2.57-1.706-10.281,1.729-9.428,10.293s-7.7,13.716-8.552,17.128c-.864,3.435-6.005,13.716-2.582,18.857s-4.276,13.716,0,23.144c4.3,9.428,1.717,21.415,3.435,24.85C38,206.306,54.3,204.6,57.725,214.028s-21.415,25.715-22.268,30.855c-.369,2.144,1.694,4.576,4.368,7.2A255.826,255.826,0,0,1,73.2,255.764c14.108,2.57,85.984-8.345,87.264-10.9,1.291-2.582-2.559-18.615-1.925-21.819s9.624-10.915,17.335-10.281c7.7.657,14.765,1.925,14.765-3.85s21.185-12.84,23.11-7.7,9.613,3.216,10.247-9.624-.634-22.453,7.065-23.11c7.7-.634,15.41-5.118,14.765-8.967s-9.636-11.561-7.066-14.119c2.57-2.582,21.83,6.409,24.389.634s-1.279-12.183,1.925-17.324,10.9-10.27,10.27-15.41c-.645-5.118.634-8.333-3.85-12.817s-2.57-10.281,3.2-10.915a8.219,8.219,0,0,0,3.227-1.395c4.461-.9,8.287-1.752,11.226-3.93,8.011-5.959,23.386-10.858,29.3-8.691,4.829,1.74,15.491.277,22.015-6.674-3.85-1.81-8.575-2.6-11.215-2.225" transform="translate(4729.773 13808.397)" fill="#dedede" opacity="0.23"/>
      <path id="Path_1542" data-name="Path 1542" d="M374.3,72.324c-10.12-4.829-11.077-13.485-11.077-16.379,0-2.524-11.445-9.486-19.767-16.021a65.047,65.047,0,0,0-6.593,1.279,14.351,14.351,0,0,0-3.965-2.57c-6.524,6.95-17.185,8.414-22.015,6.674-5.913-2.167-21.289,2.743-29.3,8.691-2.928,2.19-6.766,3.043-11.226,3.93a7.987,7.987,0,0,1-3.227,1.395c-5.775.634-7.7,6.431-3.2,10.915s3.2,7.7,3.861,12.828c.622,5.141-7.077,10.281-10.281,15.4-3.2,5.141.645,11.549-1.925,17.335s-21.819-3.216-24.378-.645,6.408,10.27,7.054,14.119-7.054,8.333-14.765,8.967c-7.7.657-6.42,10.281-7.065,23.11s-8.333,14.765-10.247,9.624-23.11,1.925-23.11,7.711-7.065,4.507-14.765,3.85c-7.7-.634-16.69,7.065-17.335,10.281-.634,3.193,3.216,19.237,1.925,21.807s-73.156,13.485-87.264,10.9a257.659,257.659,0,0,0-33.368-3.677c3.723,3.677,8.691,7.642,10.177,11.653,2.858,7.607,12,14.557,22.291,18.845,10.27,4.288,5.129,22.291,10.27,24s12,15.422,5.141,16.275a57.992,57.992,0,0,0-19.7,5.994c-6.858,3.435-14.58,12.01-13.716,22.291.115,1.372.311,3.239.553,5.406,17.485.415,38.243-.461,40.48-2.916,3.527-3.861,11.883-5.786,16.69-2.57s26.3,4.484,34.97-.311c10.535-5.855,17.012,0,17.335,5.141.311,5.118,5.118,7.365,9.935,11.872,4.806,4.484,1.291,9.6,4.5,14.742s9.624,4.172,18.937,8.345a17.117,17.117,0,0,1,3.458,2.144c.588-.657,1.072-1.2,1.383-1.579,5.152-5.994,6.005-16.275,19.71-13.716,13.716,2.582,12.852-2.559,20.574-.841,7.711,1.694,12.84.841,16.263-4.3s-3.423-15.422-7.688-19.71c-4.288-4.288-10.293-13.716-9.44-22.268.864-8.575-13.716-8.575-13.716-15.422,0-6.87,13.716-18,16.3-20.562,2.57-2.582,13.693,6.847,16.263,1.706s10.293-1.706,14.58-.853,11.134-8.575,11.987-16.286,15.422-8.575,18-11.134c2.57-2.582,6.858-19.71,8.575-23.144s12.84-.853,12.84-10.281,5.152-11.134,10.293-11.987c5.141-.876,3.423-9.428,4.288-16.3.853-6.846,4.288-14.546,11.123-16.275,6.858-1.706-2.57-11.134-10.27-9.428S321.786,129.8,321.786,129.8s.864-17.981-3.423-20.539c-4.288-2.582,1.717-12.01,11.146-12.01s26.556,10.281,32.561,5.994c5.982-4.288,17.981-6.846,21.415-8.575,2.6-1.291,6.178-9.509,7.769-13.382-3.988-2.7-10.558-5.936-16.955-8.967" transform="translate(4737.333 13838.621)" fill="#dfdfdf" opacity="0.23"/>
    </g>
    <rect id="Rectangle_686" data-name="Rectangle 686" width="1954.383" height="1168.547" transform="translate(4397.732 13431.968)" fill="none"/>
  </g>
</svg>
