<svg xmlns="http://www.w3.org/2000/svg" width="602.94" height="635.474" viewBox="0 0 602.94 635.474">
  <path id="Path_1537" data-name="Path 1537" d="M477.887,329.614c-3.9-9.094-6.512-26-5.21-32.492,1.3-6.512,9.106-1.314,11.7-9.117,2.616-7.792-22.107-7.792-14.3-18.2s7.815,0,18.211,0,14.3,5.2,14.3,11.687c0,6.512,10.408,10.42,10.408,10.42s16.9-1.3,24.712-1.3,15.595,0,15.595,5.2-9.106,22.118-16.909,22.118-7.792,22.084-1.3,23.4c6.5,1.291,11.711-16.909,15.606-16.909,2.8,0,4.933,20.643,8.76,41.9,1.014-1.187,2.075-2.063,3.181-2.063,5.141,0,2.57-17.981,6.005-23.121s1.706-21.415,4.288-21.415,18,5.141,17.139.853,9.417-18.868,7.7-26.579,6.005-17.139,6.005-26.568c0-9.405,8.564-11.987,14.569-17.128s16.286-11.987,18-7.722c1.706,4.288,14.546,7.722,9.428,0-5.152-7.7-5.152-12.84-1.717-14.546,3.423-1.729,5.141-10.281,5.141-10.281s-11.146-1.729-12.852-6.87-8.575-10.281-8.575-14.569-6-2.57-11.146,1.717-14.569-5.141-25.715.864c-11.123,5.994-13.7,12.84-18.845,11.987s-4.288,4.288-8.575,8.575c-4.265,4.288-7.711,9.428-10.27,9.428s-11.146,4.265-11.146,4.265,6.005,12.863,2.582,18.88c-3.435,5.994-12.01-.023-21.427,2.559-9.428,2.559-13.716-3.435-20.574-1.706-6.847,1.706-11.134-4.288-14.558-3.435s-8.575-7.722-6.858-14.569-3.435-16.275-6.858-11.134-8.564,2.559-8.564,10.281c0,7.7,4.288,17.128-.853,22.268s-32.573,7.723-37.7,3.435c-5.152-4.288-27.432-6.87-28.285-11.134-.864-4.288-7.711-12.01-12-12.01s-17.151,5.994-20.563,3.435c-3.423-2.582-12-9.428-18-10.281s-15.41-5.141-16.275-8.552c-.853-3.435-14.569-5.164-17.151-8.587-2.559-3.423-11.134-4.288-11.134-8.564s3.435-11.146,3.435-16.286,10.281-10.281,10.281-13.716-9.428-9.428-9.428-9.428-5.994-11.134-12.852-11.134-12.01-11.987-17.992-12.84c-5.994-.876-4.288-12.863-7.711-17.151s-.853-14.569,5.141-9.428,17.128,0,12.84-7.711-11.987-14.569-11.987-18.857,5.152-17.128-.853-20.562c-5.994-3.412-11.146-8.575-12.863-14.569S253.3,42.085,253.3,42.085l-8.564.83s-5.141,13.716-8.564,15.422c-3.435,1.729-15.433,4.288-21.427,8.575s-23.133-5.994-32.561-5.994-15.433,9.428-11.146,12.01c4.288,2.559,3.423,20.551,3.423,20.551s5.152,22.291,12.863,20.562c7.7-1.706,17.128,7.723,10.27,9.428-6.835,1.729-10.27,9.428-11.123,16.275-.864,6.87.853,15.422-4.288,16.3-5.141.853-10.293,2.559-10.293,11.987s-11.123,6.846-12.84,10.281-6.005,20.574-8.575,23.144-17.139,3.423-18,11.134-7.688,17.139-11.987,16.286-12-4.288-14.58.853c-2.559,5.141-13.693-4.288-16.263-1.706-2.582,2.559-16.3,13.693-16.3,20.562,0,6.847,14.58,6.847,13.716,15.422-.853,8.552,5.152,17.981,9.44,22.268,4.265,4.288,11.123,14.581,7.7,19.721s-8.564,5.993-16.275,4.288-6.858,3.423-20.574.853-14.557,7.711-19.71,13.716c-.311.369-.8.911-1.383,1.568,6.489,5.118,9.2,14.246,19.963,18.4,12.517,4.806,23.755-8.022,23.755,1.291,0,9.29-29.53,7.365-30.164,10.27-.645,2.87,30.475,40.434,46.208,37.529,15.71-2.882,27.259-19.882,22.764-22.464s2.57-13.14,6.743-11.215.645,18.615,5.463,22.464,3.2,10.9,0,19.894c-3.216,8.967,3.2,26.614,4.161,36.561.968,9.97,7.711,24.4,9.958,39.143,2.248,14.776,11.549,41.736,20.217,58.08,8.668,16.367,15.387,48.467,21.162,56.167s20.539,31.12,20.539,45.551,15.722,34.659,21.185,38.509,17.324-4.484,20.205-13.474,19.26-12.529,20.217-20.205c.968-7.711,2.57-13.8,8.345-14.776,5.775-.945,5.775-7.065,5.775-15.4s.645-20.205,6.42-27.593,6.743-27.271,3.216-35.293-1.614-19.26,1.591-27.271,1.936-17.335,8.034-17.969,15.065-6.1,21.485-14.765,26-20.528,33.057-26.3,28.55-24.712,34.982-35.293c6.409-10.6,24.7-14.142,33.045-22.787s5.129-13.163,6.743-22.476c1.6-9.29,28.539-13.14,38.808-13.14a28.014,28.014,0,0,0,5.406-.519c-.173-14.949-4.668-32.711-7.653-39.719" transform="translate(-46.259 -42.085)" fill="#e6e6e6"/>
</svg>
