<svg xmlns="http://www.w3.org/2000/svg" xmlns:xlink="http://www.w3.org/1999/xlink" width="899" height="899" viewBox="0 0 899 899">
  <defs>
    <clipPath id="clip-path">
      <rect id="Rectangle_1044" data-name="Rectangle 1044" width="899" height="899" transform="translate(0 1089)" fill="#fff" stroke="#707070" stroke-width="1"/>
    </clipPath>
  </defs>
  <g id="Mask_Group_117" data-name="Mask Group 117" transform="translate(0 -1089)" clip-path="url(#clip-path)">
    <g id="_22" data-name="22" transform="translate(0 1089)" fill="#dcdcdc" stroke="#000" stroke-width="4">
      <rect width="899" height="899" stroke="none"/>
      <rect x="2" y="2" width="895" height="895" fill="none"/>
    </g>
    <g id="Group_108" data-name="Group 108" transform="translate(-187.93 -38.44)">
      <path id="Path_1584" data-name="Path 1584" d="M0,0H140V139H0Z" transform="translate(295.93 1507.44)" fill="#393939"/>
      <rect id="Rectangle_688" data-name="Rectangle 688" width="140" height="139" rx="10" transform="translate(477.93 1507.44)" fill="#393939"/>
      <rect id="Rectangle_689" data-name="Rectangle 689" width="140" height="139" rx="19" transform="translate(657.93 1507.44)" fill="#393939"/>
      <g id="Path_1583" data-name="Path 1583" transform="translate(839.93 1507.44)" fill="#393939">
        <path d="M 71 138.5 L 69 138.5 C 59.75232696533203 138.5 50.78156280517578 136.6889495849609 42.33685302734375 133.1171417236328 C 38.27805328369141 131.4004211425781 34.36330795288086 129.2755432128906 30.70134544372559 126.8015823364258 C 27.07403564453125 124.3510208129883 23.66307258605957 121.5367126464844 20.56318092346191 118.4368209838867 C 17.46329116821289 115.3369293212891 14.64898204803467 111.9259643554688 12.19841861724854 108.2986526489258 C 9.724454879760742 104.6366882324219 7.599581718444824 100.7219467163086 5.882854461669922 96.66314697265625 C 2.311054468154907 88.21843719482422 0.5 79.24767303466797 0.5 70 L 0.5 69 C 0.5 59.75232696533203 2.311054468154907 50.78156280517578 5.882854461669922 42.33685302734375 C 7.599581718444824 38.27805328369141 9.724454879760742 34.36330795288086 12.19841861724854 30.70134544372559 C 14.64898204803467 27.07403564453125 17.46329116821289 23.66307258605957 20.56318092346191 20.56318092346191 C 23.66307258605957 17.46329116821289 27.07403564453125 14.64898204803467 30.70134544372559 12.19841861724854 C 34.36330795288086 9.724454879760742 38.27805328369141 7.599581718444824 42.33685302734375 5.882854461669922 C 50.78156280517578 2.311054468154907 59.75232696533203 0.5 69 0.5 L 71 0.5 C 80.24767303466797 0.5 89.21843719482422 2.311054468154907 97.66314697265625 5.882854461669922 C 101.7219467163086 7.599581718444824 105.6366882324219 9.724454879760742 109.2986526489258 12.19841861724854 C 112.9259643554688 14.64898204803467 116.3369293212891 17.46329116821289 119.4368209838867 20.56318092346191 C 122.5367126464844 23.66307258605957 125.3510208129883 27.07403564453125 127.8015823364258 30.70134544372559 C 130.2755432128906 34.36330795288086 132.4004211425781 38.27805328369141 134.1171417236328 42.33685302734375 C 137.6889495849609 50.78156280517578 139.5 59.75232696533203 139.5 69 L 139.5 70 C 139.5 79.24767303466797 137.6889495849609 88.21843719482422 134.1171417236328 96.66314697265625 C 132.4004211425781 100.7219467163086 130.2755432128906 104.6366882324219 127.8015823364258 108.2986526489258 C 125.3510208129883 111.9259643554688 122.5367126464844 115.3369293212891 119.4368209838867 118.4368209838867 C 116.3369293212891 121.5367126464844 112.9259643554688 124.3510208129883 109.2986526489258 126.8015823364258 C 105.6366882324219 129.2755432128906 101.7219467163086 131.4004211425781 97.66314697265625 133.1171417236328 C 89.21843719482422 136.6889495849609 80.24767303466797 138.5 71 138.5 Z" stroke="none"/>
        <path d="M 69 1 C 59.81961822509766 1 50.91436004638672 2.797760009765625 42.53163909912109 6.343368530273438 C 38.5025634765625 8.047515869140625 34.616455078125 10.15682983398438 30.98125457763672 12.61274719238281 C 27.38031005859375 15.04547119140625 23.99412536621094 17.83934783935547 20.91672515869141 20.91672515869141 C 17.83934783935547 23.99412536621094 15.04547119140625 27.38031005859375 12.61274719238281 30.98125457763672 C 10.15682983398438 34.616455078125 8.047515869140625 38.5025634765625 6.343368530273438 42.53163909912109 C 2.797760009765625 50.91436004638672 1 59.81961822509766 1 69 L 1 70 C 1 79.18038177490234 2.797760009765625 88.08563232421875 6.343368530273438 96.46836853027344 C 8.047515869140625 100.4974365234375 10.15682983398438 104.383544921875 12.61274719238281 108.0187454223633 C 15.04547119140625 111.6196899414062 17.83934783935547 115.0058746337891 20.91672515869141 118.0832748413086 C 23.99412536621094 121.1606521606445 27.38031005859375 123.9545288085938 30.98125457763672 126.3872528076172 C 34.616455078125 128.8431701660156 38.5025634765625 130.9524841308594 42.53163909912109 132.6566314697266 C 50.91436004638672 136.2022399902344 59.81961822509766 138 69 138 L 71 138 C 80.18038177490234 138 89.08563232421875 136.2022399902344 97.46836853027344 132.6566314697266 C 101.4974365234375 130.9524841308594 105.383544921875 128.8431701660156 109.0187454223633 126.3872528076172 C 112.6196899414062 123.9545288085938 116.0058746337891 121.1606521606445 119.0832748413086 118.0832748413086 C 122.1606521606445 115.0058746337891 124.9545288085938 111.6196899414062 127.3872528076172 108.0187454223633 C 129.8431701660156 104.383544921875 131.9524841308594 100.4974365234375 133.6566314697266 96.46836853027344 C 137.2022399902344 88.08563232421875 139 79.18038177490234 139 70 L 139 69 C 139 59.81961822509766 137.2022399902344 50.91436004638672 133.6566314697266 42.53163909912109 C 131.9524841308594 38.5025634765625 129.8431701660156 34.616455078125 127.3872528076172 30.98125457763672 C 124.9545288085938 27.38031005859375 122.1606521606445 23.99412536621094 119.0832748413086 20.91672515869141 C 116.0058746337891 17.83934783935547 112.6196899414062 15.04547119140625 109.0187454223633 12.61274719238281 C 105.383544921875 10.15682983398438 101.4974365234375 8.047515869140625 97.46836853027344 6.343368530273438 C 89.08563232421875 2.797760009765625 80.18038177490234 1 71 1 L 69 1 M 69 0 L 71 0 C 109.1076507568359 0 140 30.89234924316406 140 69 L 140 70 C 140 108.1076507568359 109.1076507568359 139 71 139 L 69 139 C 30.89234924316406 139 0 108.1076507568359 0 70 L 0 69 C 0 30.89234924316406 30.89234924316406 0 69 0 Z" stroke="none" fill="#707070"/>
      </g>
    </g>
    <g id="Group_156" data-name="Group 156" transform="translate(0 1922.689)">
      <path id="Path_1560" data-name="Path 1560" d="M0,0H899V65.311H0Z" transform="translate(0 0)" fill="#090202"/>
      <text id="Ongoing_Project" data-name="Ongoing Project" transform="translate(344 42.311)" fill="#fff" font-size="26" font-family="SegoeUI, Segoe UI"><tspan x="0" y="0">Ongoing Project</tspan></text>
      <path id="Icon_material-keyboard-arrow-right" data-name="Icon material-keyboard-arrow-right" d="M12.885,31.265l9.792-9.813-9.792-9.813L15.9,8.625l6.777,6.883,6.05,5.944L15.9,34.28Z" transform="translate(853.726 8.79)" fill="#fff"/>
    </g>
  </g>
</svg>
